<svg width="135" height="48" viewBox="0 0 135 48" fill="none" xmlns="http://www.w3.org/2000/svg">
<path d="M21.0605 34.8569V38H6.48633V34.8569H21.0605ZM7.24707 8.85156V38H3.3833V8.85156H7.24707ZM40.6701 8.85156H44.5138V28.5708C44.5138 30.7596 44.0267 32.5814 43.0524 34.0361C42.0781 35.4909 40.7835 36.5853 39.1686 37.3193C37.5671 38.04 35.8254 38.4004 33.9435 38.4004C31.9683 38.4004 30.1798 38.04 28.5783 37.3193C26.9901 36.5853 25.7288 35.4909 24.7946 34.0361C23.8737 32.5814 23.4132 30.7596 23.4132 28.5708V8.85156H27.237V28.5708C27.237 30.0923 27.5172 31.3468 28.0778 32.3345C28.6383 33.3221 29.4191 34.0562 30.4201 34.5366C31.4344 35.0171 32.6089 35.2573 33.9435 35.2573C35.2915 35.2573 36.466 35.0171 37.467 34.5366C38.4813 34.0562 39.2687 33.3221 39.8293 32.3345C40.3898 31.3468 40.6701 30.0923 40.6701 28.5708V8.85156ZM60.5599 24.3667H53.1727L53.1326 21.2637H59.8392C60.9469 21.2637 61.9145 21.0768 62.742 20.7031C63.5695 20.3294 64.2101 19.7956 64.6639 19.1016C65.131 18.3942 65.3646 17.5534 65.3646 16.5791C65.3646 15.5114 65.1577 14.6439 64.744 13.9766C64.3436 13.2959 63.723 12.8021 62.8821 12.4951C62.0547 12.1748 61.0003 12.0146 59.7191 12.0146H54.0335V38H50.1697V8.85156H59.7191C61.2139 8.85156 62.5485 9.00505 63.723 9.31201C64.8974 9.60563 65.8918 10.0728 66.7059 10.7134C67.5334 11.3407 68.1606 12.1414 68.5877 13.1157C69.0148 14.09 69.2283 15.2578 69.2283 16.6191C69.2283 17.8203 68.9214 18.908 68.3074 19.8823C67.6935 20.8433 66.8393 21.6307 65.7449 22.2446C64.6639 22.8586 63.396 23.2523 61.9412 23.4258L60.5599 24.3667ZM60.3797 38H51.6512L53.8333 34.8569H60.3797C61.6076 34.8569 62.6486 34.6434 63.5028 34.2163C64.3703 33.7892 65.0309 33.1886 65.4847 32.4146C65.9385 31.6271 66.1654 30.6995 66.1654 29.6318C66.1654 28.5508 65.9718 27.6165 65.5848 26.8291C65.1977 26.0417 64.5905 25.4344 63.763 25.0073C62.9355 24.5802 61.8678 24.3667 60.5599 24.3667H55.0545L55.0946 21.2637H62.6219L63.4427 22.3848C64.8441 22.5049 66.0319 22.9053 67.0062 23.5859C67.9805 24.2533 68.7212 25.1074 69.2283 26.1484C69.7488 27.1895 70.0091 28.3372 70.0091 29.5918C70.0091 31.4069 69.6087 32.9417 68.8079 34.1963C68.0205 35.4375 66.9061 36.3851 65.4647 37.0391C64.0233 37.6797 62.3283 38 60.3797 38ZM91.9809 8.85156H95.8247V28.5708C95.8247 30.7596 95.3375 32.5814 94.3633 34.0361C93.389 35.4909 92.0944 36.5853 90.4795 37.3193C88.8779 38.04 87.1362 38.4004 85.2544 38.4004C83.2791 38.4004 81.4907 38.04 79.8891 37.3193C78.3009 36.5853 77.0397 35.4909 76.1054 34.0361C75.1845 32.5814 74.7241 30.7596 74.7241 28.5708V8.85156H78.5478V28.5708C78.5478 30.0923 78.8281 31.3468 79.3886 32.3345C79.9492 33.3221 80.73 34.0562 81.7309 34.5366C82.7453 35.0171 83.9197 35.2573 85.2544 35.2573C86.6024 35.2573 87.7768 35.0171 88.7778 34.5366C89.7921 34.0562 90.5796 33.3221 91.1401 32.3345C91.7007 31.3468 91.9809 30.0923 91.9809 28.5708V8.85156ZM110.89 33.5757L119.478 8.85156H123.662L112.872 38H109.889L110.89 33.5757ZM102.862 8.85156L111.37 33.5757L112.431 38H109.448L98.6779 8.85156H102.862ZM131.32 8.85156V38H127.456V8.85156H131.32Z" fill="black"/>
<ellipse cx="39" cy="31.5" rx="7" ry="7.5" fill="#6E6BFF"/>
<circle cx="90.5" cy="31.5" r="7.5" fill="#6E6BFF"/>
</svg>
